<svg xmlns="http://www.w3.org/2000/svg" xmlns:xlink="http://www.w3.org/1999/xlink" width="304" height="255" viewBox="0 0 304 255">
  <defs>
    <clipPath id="clip-path">
      <rect id="Rectangle_5" data-name="Rectangle 5" width="304" height="255" rx="43" transform="translate(232 1422)" fill="#fff" stroke="#707070" stroke-width="1"/>
    </clipPath>
  </defs>
  <g id="Mask_Group_1" data-name="Mask Group 1" transform="translate(-232 -1422)" clip-path="url(#clip-path)">
    <path id="Icon_awesome-discord" data-name="Icon awesome-discord" d="M220.652,180.551c0,11.593-8.552,21.1-19.385,21.1-10.643,0-19.385-9.5-19.385-21.1s8.552-21.1,19.385-21.1S220.652,168.957,220.652,180.551Zm-88.755-21.1c-10.833,0-19.385,9.5-19.385,21.1s8.742,21.1,19.385,21.1c10.833,0,19.385-9.5,19.385-21.1C151.473,168.957,142.73,159.455,131.9,159.455Zm200.7-120.3V380.107c-47.88-42.312-32.567-28.306-88.185-80.012l10.073,35.16H38.961A39.055,39.055,0,0,1,0,296.1V39.151A39.055,39.055,0,0,1,38.961,0H293.633A39.055,39.055,0,0,1,332.593,39.151ZM278.428,219.322c0-61.2-27.368-110.8-27.368-110.8-27.368-20.526-53.4-19.956-53.4-19.956l-2.661,3.041c32.309,9.883,47.323,24.137,47.323,24.137C197.172,91,144.141,90.995,100.348,110.231c-7.032,3.231-11.213,5.512-11.213,5.512s15.774-15.014,49.984-24.9l-1.9-2.281s-26.037-.57-53.4,19.956c0,0-27.368,49.6-27.368,110.8,0,0,15.964,27.558,57.966,28.888,0,0,7.032-8.552,12.734-15.774-24.137-7.222-33.259-22.426-33.259-22.426,2.8,1.957,7.406,4.494,7.792,4.751,32.079,17.964,77.646,23.85,118.593,6.652A108.759,108.759,0,0,0,242.128,210.2s-9.5,15.584-34.4,22.616c5.7,7.222,12.544,15.394,12.544,15.394C262.274,246.879,278.428,219.322,278.428,219.322Z" transform="translate(216.481 1379.58)" fill="#488cff"/>
  </g>
</svg>
